<?xml version="1.0" standalone="no"?>
<!DOCTYPE svg PUBLIC "-//W3C//DTD SVG 20010904//EN"
 "http://www.w3.org/TR/2001/REC-SVG-20010904/DTD/svg10.dtd">
<svg version="1.0" xmlns="http://www.w3.org/2000/svg"
 width="512.000000pt" height="512.000000pt" viewBox="0 0 512.000000 512.000000"
 preserveAspectRatio="xMidYMid meet">
<metadata>
Created by potrace 1.14, written by Peter Selinger 2001-2017
</metadata>
<g transform="translate(0.000000,512.000000) scale(0.100000,-0.100000)"
fill="#000000" stroke="none">
<path d="M105 3758 c1 -750 5 -1379 9 -1398 3 -19 10 -69 16 -110 14 -99 68
-324 83 -343 14 -17 242 -64 397 -82 30 -3 62 -8 70 -10 75 -19 568 -27 760
-12 654 50 1317 280 1870 650 93 62 244 173 277 202 6 5 54 46 107 90 53 44
163 148 244 230 496 505 844 1128 1011 1813 23 90 43 186 47 213 4 27 9 49 13
49 3 0 6 15 5 32 l-1 33 -2455 3 -2456 2 3 -1362z"/>
<path d="M5009 4963 c0 -10 -2 -25 -3 -33 -2 -8 -6 -46 -10 -85 -21 -211 -97
-557 -169 -775 -37 -110 -81 -231 -96 -265 -6 -11 -26 -58 -46 -105 -57 -133
-173 -352 -265 -500 -70 -112 -270 -391 -313 -435 -7 -7 -37 -41 -67 -76 -97
-113 -303 -314 -429 -419 -636 -531 -1453 -857 -2276 -907 -311 -19 -669 1
-948 54 l-28 5 51 -84 c299 -482 767 -857 1301 -1043 168 -58 389 -109 529
-121 36 -3 76 -8 90 -10 32 -6 360 -4 425 2 754 69 1426 473 1855 1112 98 147
198 352 266 546 37 107 88 294 98 361 4 23 8 50 10 60 6 34 15 97 22 155 7 53
13 2580 7 2580 -2 0 -3 -8 -4 -17z"/>
</g>
</svg>
