<svg width="16" height="16" viewBox="0 0 16 16" fill="none" xmlns="http://www.w3.org/2000/svg">
  <circle cx="8" cy="8" r="7.5" fill="white" stroke="#828282" />
  <path
    d="M6.235 12V11.116H7.743V6.917H6.313V6.02H8.861V11.116H10.239V12H6.235ZM8.237 4.863C8.029 4.863 7.85133 4.78933 7.704 4.642C7.55667 4.49467 7.483 4.32133 7.483 4.122C7.483 3.914 7.55233 3.74067 7.691 3.602C7.83833 3.45467 8.02033 3.381 8.237 3.381C8.43633 3.381 8.60967 3.45467 8.757 3.602C8.913 3.74933 8.991 3.92267 8.991 4.122C8.991 4.32133 8.913 4.49467 8.757 4.642C8.60967 4.78933 8.43633 4.863 8.237 4.863Z"
    fill="#828282" />
</svg>