<svg width="512" height="512" viewBox="0 0 24 25" fill="none" xmlns="http://www.w3.org/2000/svg">
  <g clip-path="url(#clip0_1_10)">
    <path
      d="M24 0V12.0838C23.9986 14.7659 23.1097 17.3722 21.4721 19.4963C19.8345 21.6204 17.5401 23.143 14.9466 23.8268C12.3531 24.5105 9.60621 24.3169 7.13422 23.2762C4.66224 22.2355 2.60405 20.4062 1.28051 18.0734C3.16989 18.4235 5.10106 18.4886 7.00974 18.2665C11.5515 17.74 15.7568 15.6118 18.8707 12.2639C21.9847 8.91611 23.8032 4.56792 24 0"
      fill="#059991" />
    <path
      d="M23.9999 0C23.2911 4.52655 20.9889 8.6511 17.5081 11.6304C14.0274 14.6097 9.59695 16.2479 5.01524 16.2497C3.50592 16.2517 2.00162 16.0758 0.533451 15.7258C0.178091 14.5671 -0.0017521 13.3618 -9.54704e-05 12.1499V0H23.9999Z"
      fill="#004870" />
    <path
      d="M7.00653 18.2665C5.09892 18.4882 3.16885 18.4231 1.28051 18.0734C2.36867 19.9932 3.95906 21.5806 5.88101 22.6651C7.80296 23.7496 9.98394 24.2903 12.1899 24.2292C14.3959 24.1682 16.5436 23.5076 18.4026 22.3183C20.2616 21.1291 21.7617 19.4562 22.7419 17.479C19.8798 17.4399 17.0482 16.8847 14.3833 15.8399C12.1168 17.1436 9.60746 17.9694 7.00974 18.2665"
      fill="#49C1BF" />
    <path
      d="M0.426742 0H-9.54704e-05V12.1499C-0.0017521 13.3618 0.178091 14.5671 0.533451 15.7258C2.00162 16.0758 3.50592 16.2517 5.01524 16.2497C7.51747 16.2527 9.99605 15.7655 12.311 14.8155C9.41646 13.2928 6.86524 11.1922 4.8152 8.64386C2.76516 6.09549 1.25991 3.15352 0.392595 0"
      fill="#00AEEF" />
  </g>
  <defs>
    <clipPath id="clip0_1_10">
      <rect width="24" height="24.2337" fill="white" />
    </clipPath>
  </defs>
</svg>